<mxfile host="app.diagrams.net" modified="2024-07-30T00:35:11.120Z" agent="Mozilla/5.0 (Macintosh; Intel Mac OS X 10_15_7) AppleWebKit/537.36 (KHTML, like Gecko) Chrome/126.0.0.0 Safari/537.36" etag="v8XoYGuM7RfFYJF_n2cc" version="22.1.16" type="device">
  <diagram name="slack noti" id="5V0PvvUkf1-SxyWOqNRX">
    <mxGraphModel dx="982" dy="1007" grid="1" gridSize="10" guides="1" tooltips="1" connect="1" arrows="1" fold="1" page="1" pageScale="1" pageWidth="1600" pageHeight="900" math="0" shadow="0">
      <root>
        <mxCell id="0" />
        <mxCell id="1" parent="0" />
        <mxCell id="QjSGaYeKIMsyX8sa01Gp-1" value="" style="sketch=0;points=[[0,0,0],[0.25,0,0],[0.5,0,0],[0.75,0,0],[1,0,0],[0,1,0],[0.25,1,0],[0.5,1,0],[0.75,1,0],[1,1,0],[0,0.25,0],[0,0.5,0],[0,0.75,0],[1,0.25,0],[1,0.5,0],[1,0.75,0]];outlineConnect=0;fontColor=#232F3E;fillColor=#01A88D;strokeColor=#ffffff;dashed=0;verticalLabelPosition=bottom;verticalAlign=top;align=center;html=1;fontSize=12;fontStyle=0;aspect=fixed;shape=mxgraph.aws4.resourceIcon;resIcon=mxgraph.aws4.datasync;" vertex="1" parent="1">
          <mxGeometry x="82" y="330" width="78" height="78" as="geometry" />
        </mxCell>
        <mxCell id="QjSGaYeKIMsyX8sa01Gp-2" value="" style="sketch=0;points=[[0,0,0],[0.25,0,0],[0.5,0,0],[0.75,0,0],[1,0,0],[0,1,0],[0.25,1,0],[0.5,1,0],[0.75,1,0],[1,1,0],[0,0.25,0],[0,0.5,0],[0,0.75,0],[1,0.25,0],[1,0.5,0],[1,0.75,0]];points=[[0,0,0],[0.25,0,0],[0.5,0,0],[0.75,0,0],[1,0,0],[0,1,0],[0.25,1,0],[0.5,1,0],[0.75,1,0],[1,1,0],[0,0.25,0],[0,0.5,0],[0,0.75,0],[1,0.25,0],[1,0.5,0],[1,0.75,0]];outlineConnect=0;fontColor=#232F3E;fillColor=#E7157B;strokeColor=#ffffff;dashed=0;verticalLabelPosition=bottom;verticalAlign=top;align=center;html=1;fontSize=12;fontStyle=0;aspect=fixed;shape=mxgraph.aws4.resourceIcon;resIcon=mxgraph.aws4.cloudwatch_2;" vertex="1" parent="1">
          <mxGeometry x="230" y="330" width="78" height="78" as="geometry" />
        </mxCell>
        <mxCell id="QjSGaYeKIMsyX8sa01Gp-3" value="" style="sketch=0;points=[[0,0,0],[0.25,0,0],[0.5,0,0],[0.75,0,0],[1,0,0],[0,1,0],[0.25,1,0],[0.5,1,0],[0.75,1,0],[1,1,0],[0,0.25,0],[0,0.5,0],[0,0.75,0],[1,0.25,0],[1,0.5,0],[1,0.75,0]];outlineConnect=0;fontColor=#232F3E;fillColor=#ED7100;strokeColor=#ffffff;dashed=0;verticalLabelPosition=bottom;verticalAlign=top;align=center;html=1;fontSize=12;fontStyle=0;aspect=fixed;shape=mxgraph.aws4.resourceIcon;resIcon=mxgraph.aws4.lambda;" vertex="1" parent="1">
          <mxGeometry x="380" y="330" width="78" height="78" as="geometry" />
        </mxCell>
        <mxCell id="QjSGaYeKIMsyX8sa01Gp-4" value="" style="sketch=0;points=[[0,0,0],[0.25,0,0],[0.5,0,0],[0.75,0,0],[1,0,0],[0,1,0],[0.25,1,0],[0.5,1,0],[0.75,1,0],[1,1,0],[0,0.25,0],[0,0.5,0],[0,0.75,0],[1,0.25,0],[1,0.5,0],[1,0.75,0]];outlineConnect=0;fontColor=#232F3E;fillColor=#E7157B;strokeColor=#ffffff;dashed=0;verticalLabelPosition=bottom;verticalAlign=top;align=center;html=1;fontSize=12;fontStyle=0;aspect=fixed;shape=mxgraph.aws4.resourceIcon;resIcon=mxgraph.aws4.sns;" vertex="1" parent="1">
          <mxGeometry x="530" y="330" width="78" height="78" as="geometry" />
        </mxCell>
        <mxCell id="QjSGaYeKIMsyX8sa01Gp-5" value="" style="shape=image;html=1;verticalAlign=top;verticalLabelPosition=bottom;labelBackgroundColor=#ffffff;imageAspect=0;aspect=fixed;image=https://cdn2.iconfinder.com/data/icons/social-media-2285/512/1_Slack_colored_svg-128.png" vertex="1" parent="1">
          <mxGeometry x="598" y="250" width="70" height="70" as="geometry" />
        </mxCell>
        <mxCell id="QjSGaYeKIMsyX8sa01Gp-6" value="" style="endArrow=classic;html=1;rounded=0;" edge="1" parent="1">
          <mxGeometry width="50" height="50" relative="1" as="geometry">
            <mxPoint x="170" y="368.5" as="sourcePoint" />
            <mxPoint x="220" y="368.5" as="targetPoint" />
          </mxGeometry>
        </mxCell>
        <mxCell id="QjSGaYeKIMsyX8sa01Gp-7" value="" style="endArrow=classic;html=1;rounded=0;" edge="1" parent="1">
          <mxGeometry width="50" height="50" relative="1" as="geometry">
            <mxPoint x="320" y="368.5" as="sourcePoint" />
            <mxPoint x="370" y="368.5" as="targetPoint" />
          </mxGeometry>
        </mxCell>
        <mxCell id="QjSGaYeKIMsyX8sa01Gp-8" value="" style="endArrow=classic;html=1;rounded=0;" edge="1" parent="1">
          <mxGeometry width="50" height="50" relative="1" as="geometry">
            <mxPoint x="470" y="368.5" as="sourcePoint" />
            <mxPoint x="520" y="368.5" as="targetPoint" />
          </mxGeometry>
        </mxCell>
        <mxCell id="QjSGaYeKIMsyX8sa01Gp-10" value="&lt;font style=&quot;font-size: 15px;&quot;&gt;Lambda&lt;/font&gt;" style="text;html=1;strokeColor=none;fillColor=none;align=center;verticalAlign=middle;whiteSpace=wrap;rounded=0;" vertex="1" parent="1">
          <mxGeometry x="389" y="410" width="60" height="30" as="geometry" />
        </mxCell>
        <mxCell id="QjSGaYeKIMsyX8sa01Gp-11" value="&lt;span style=&quot;font-size: 15px;&quot;&gt;CloudWatch&lt;br&gt;Logs&lt;br&gt;&lt;/span&gt;" style="text;html=1;strokeColor=none;fillColor=none;align=center;verticalAlign=middle;whiteSpace=wrap;rounded=0;" vertex="1" parent="1">
          <mxGeometry x="239" y="420" width="60" height="30" as="geometry" />
        </mxCell>
        <mxCell id="QjSGaYeKIMsyX8sa01Gp-12" value="&lt;span style=&quot;font-size: 15px;&quot;&gt;Simple Notification Service&lt;/span&gt;" style="text;html=1;strokeColor=none;fillColor=none;align=center;verticalAlign=middle;whiteSpace=wrap;rounded=0;" vertex="1" parent="1">
          <mxGeometry x="499" y="420" width="140" height="30" as="geometry" />
        </mxCell>
        <mxCell id="QjSGaYeKIMsyX8sa01Gp-13" value="&lt;span style=&quot;font-size: 15px;&quot;&gt;DataSync&lt;/span&gt;" style="text;html=1;strokeColor=none;fillColor=none;align=center;verticalAlign=middle;whiteSpace=wrap;rounded=0;" vertex="1" parent="1">
          <mxGeometry x="91" y="410" width="60" height="30" as="geometry" />
        </mxCell>
        <mxCell id="QjSGaYeKIMsyX8sa01Gp-14" value="&lt;span style=&quot;font-size: 15px;&quot;&gt;Slack Channel&lt;/span&gt;" style="text;html=1;strokeColor=none;fillColor=none;align=center;verticalAlign=middle;whiteSpace=wrap;rounded=0;" vertex="1" parent="1">
          <mxGeometry x="630" y="320" width="80" height="30" as="geometry" />
        </mxCell>
      </root>
    </mxGraphModel>
  </diagram>
</mxfile>
